<svg width="1200" height="1200" xmlns="http://www.w3.org/2000/svg" xmlns:xlink="http://www.w3.org/1999/xlink" version="1.1"><g transform="scale(13.426379858366333) translate(-5.312353558010521, -5.311185306972927)">            <linearGradient id="SvgjsLinearGradient1053"><stop id="SvgjsStop1054" stop-color="#2d388a" offset="0"/><stop id="SvgjsStop1055" stop-color="#00aeef" offset="1"/></linearGradient>            <g fill="url(#SvgjsLinearGradient1053)"><linearGradient id="SvgjsLinearGradient1053"><stop id="SvgjsStop1054" stop-color="#2d388a" offset="0"/><stop id="SvgjsStop1055" stop-color="#00aeef" offset="1"/></linearGradient><g xmlns="http://www.w3.org/2000/svg"><path fill="url(#SvgjsLinearGradient1053)" d="M16.166,45.776c-1.104,0-2,0.896-2,2c0,4.891-0.324,9.835-0.964,14.695c-0.144,1.095,0.627,2.1,1.722,2.243   c0.089,0.012,0.177,0.018,0.264,0.018c0.988,0,1.848-0.732,1.98-1.739c0.663-5.032,0.999-10.152,0.999-15.217   C18.166,46.671,17.271,45.776,16.166,45.776z"/><path fill="url(#SvgjsLinearGradient1053)" d="M86.83,37.83c1.04-0.36,1.59-1.5,1.23-2.55c-0.485-1.396-1.054-2.742-1.688-4.046   c1.976-1.91,3.211-4.582,3.211-7.542c0-5.79-4.71-10.5-10.5-10.5c-2.547,0-4.884,0.913-6.704,2.427   C66.454,11.893,59.487,9.78,52.17,9.78c-11.255,0-21.632,5.042-28.687,13.146c-0.995-0.314-2.052-0.484-3.149-0.484   c-5.79,0-10.5,4.71-10.5,10.5s4.71,10.5,10.5,10.5c0.391,0,0.775-0.025,1.155-0.067c-0.206,1.44-0.319,2.91-0.319,4.405   c0,8.07-0.82,16.15-2.44,24c-0.22,1.08,0.48,2.14,1.56,2.36c0.14,0.03,0.27,0.04,0.41,0.04c0.92,0,1.76-0.65,1.95-1.6   c1.67-8.11,2.52-16.46,2.52-24.8c0-2.041,0.253-4.015,0.683-5.923c2.983-1.854,4.98-5.152,4.98-8.915   c0-0.514-0.05-1.015-0.121-1.51C35.639,24.964,43.423,20.78,52.17,20.78c1.1,0,2-0.9,2-2c0-1.11-0.9-2-2-2   c-9.176,0-17.423,4.001-23.098,10.352c-0.557-0.835-1.231-1.586-1.998-2.229C33.365,18.026,42.396,13.78,52.17,13.78   c6.372,0,12.444,1.8,17.653,4.972c-0.472,0.882-0.824,1.837-1.029,2.845c-2.837-1.802-5.995-3.166-9.414-3.977   c-1.08-0.25-2.15,0.41-2.41,1.48c-0.26,1.08,0.41,2.16,1.48,2.41c3.972,0.951,7.544,2.748,10.569,5.158   c0.896,3.026,3.117,5.488,5.993,6.702c2.642,4.197,4.158,9.144,4.158,14.41c0,9.78-0.83,19.65-2.45,29.33   c-0.18,1.09,0.55,2.12,1.64,2.31c0.12,0.01,0.23,0.02,0.34,0.02c0.96,0,1.8-0.69,1.97-1.67c1.66-9.9,2.5-19.99,2.5-29.99   c0-4.868-1.126-9.503-3.144-13.636c1.033-0.092,2.021-0.337,2.947-0.708c0.48,1.027,0.93,2.076,1.307,3.163   C84.64,37.64,85.79,38.19,86.83,37.83z M13.833,32.942c0-3.584,2.916-6.5,6.5-6.5s6.5,2.916,6.5,6.5s-2.916,6.5-6.5,6.5   S13.833,36.526,13.833,32.942z M79.083,17.192c3.584,0,6.5,2.916,6.5,6.5s-2.916,6.5-6.5,6.5s-6.5-2.916-6.5-6.5   S75.499,17.192,79.083,17.192z"/><path fill="url(#SvgjsLinearGradient1053)" d="M88.167,45.776c-1.104,0-2,0.896-2,2c0,6.275-0.322,12.609-0.956,18.828   c-0.112,1.099,0.688,2.081,1.786,2.192c0.069,0.008,0.138,0.011,0.205,0.011c1.014,0,1.883-0.768,1.987-1.797   c0.648-6.353,0.978-12.824,0.978-19.234C90.167,46.671,89.271,45.776,88.167,45.776z"/><path fill="url(#SvgjsLinearGradient1053)" d="M52.167,27.776c8.85,0,16.751,5.939,19.215,14.443c0.307,1.062,1.421,1.674,2.478,1.364   c1.061-0.307,1.672-1.417,1.364-2.478c-2.956-10.203-12.437-17.33-23.057-17.33c-13.234,0-24,10.767-24,24   c0,10.095-1.213,20.169-3.604,29.942c-0.262,1.073,0.395,2.155,1.467,2.418c0.16,0.039,0.32,0.058,0.477,0.058   c0.9,0,1.718-0.611,1.941-1.524c2.467-10.085,3.719-20.479,3.719-30.894C32.166,36.748,41.138,27.776,52.167,27.776z"/><path fill="url(#SvgjsLinearGradient1053)" d="M43.088,65.4c-1.094-0.16-2.104,0.61-2.256,1.705c-0.828,5.951-2.055,11.906-3.646,17.7   c-0.292,1.064,0.334,2.165,1.399,2.458c0.177,0.049,0.355,0.072,0.531,0.072c0.878,0,1.684-0.584,1.928-1.472   c1.637-5.96,2.898-12.086,3.75-18.208C44.946,66.562,44.182,65.551,43.088,65.4z"/><path fill="url(#SvgjsLinearGradient1053)" d="M37.166,45.776c-1.104,0-2,0.896-2,2c0,11.548-1.498,23.036-4.45,34.145   c-0.284,1.067,0.351,2.163,1.419,2.446c0.172,0.046,0.345,0.068,0.515,0.068c0.884,0,1.693-0.592,1.932-1.487   c3.042-11.443,4.584-23.277,4.584-35.172C39.166,46.671,38.271,45.776,37.166,45.776z"/><path fill="url(#SvgjsLinearGradient1053)" d="M51.829,45.803c-0.984,0.161-1.662,1.086-1.663,2.083c-0.009,12.718-2.64,28.063-5.682,39.846   c-0.298,1.154,0.465,2.318,1.648,2.466c0.013,0.002,0.027,0.003,0.04,0.005c0.992,0.124,1.934-0.5,2.184-1.468   c3.133-12.139,5.81-27.856,5.81-40.96C54.166,46.561,53.083,45.599,51.829,45.803z"/><path fill="url(#SvgjsLinearGradient1053)" d="M77.583,54.193c0-1.919-0.526-3.713-1.428-5.262c0.003-0.383,0.015-0.767,0.015-1.15c0-1.11-0.9-2-2-2   c-0.237,0-0.462,0.043-0.673,0.118c-1.373-1.065-3.015-1.792-4.807-2.069C66.902,36.351,60.177,30.78,52.17,30.78   c-5.84,0-11.21,2.95-14.35,7.89c-0.6,0.93-0.32,2.17,0.61,2.76c0.93,0.59,2.17,0.32,2.76-0.61c2.41-3.79,6.51-6.04,10.98-6.04   c5.85,0,10.801,3.893,12.427,9.222c-0.993,0.243-1.931,0.624-2.791,1.128c-1.171-4.234-5.048-7.349-9.636-7.349   c-5.52,0-10,4.48-10,10c0,4.72-0.24,9.5-0.72,14.19c-0.11,1.09,0.69,2.08,1.79,2.19c0.07,0,0.14,0.01,0.2,0.01   c1.02,0,1.89-0.77,1.99-1.8c0.49-4.82,0.74-9.73,0.74-14.59c0-3.31,2.69-6,6-6s6,2.69,6,6c0,0.242,0.044,0.473,0.123,0.687   c-1.077,1.649-1.71,3.613-1.71,5.726c0,1.731,0.428,3.362,1.174,4.803C57.081,68.429,55.558,77.799,53.2,86.9   c-0.28,1.07,0.36,2.16,1.43,2.44c0.17,0.04,0.34,0.06,0.5,0.06c0.89,0,1.7-0.59,1.94-1.49c2.108-8.138,3.561-16.47,4.368-24.879   c0.876,0.562,1.84,0.994,2.867,1.276c-0.729,7.191-1.911,14.336-3.595,21.352c-0.25,1.07,0.41,2.15,1.48,2.41   c0.16,0.04,0.31,0.06,0.47,0.06c0.9,0,1.72-0.62,1.94-1.54c1.73-7.223,2.942-14.575,3.691-21.973   c1.095-0.126,2.136-0.423,3.102-0.861c-0.596,6.356-1.526,12.669-2.833,18.893c-0.22,1.08,0.47,2.14,1.55,2.37   c0.14,0.03,0.28,0.04,0.41,0.04c0.93,0,1.76-0.65,1.96-1.59c1.607-7.668,2.683-15.474,3.24-23.321   C76.892,58.455,77.583,56.404,77.583,54.193z M60.583,54.193c0-3.584,2.916-6.5,6.5-6.5s6.5,2.917,6.5,6.5s-2.916,6.5-6.5,6.5   S60.583,57.777,60.583,54.193z"/></g></g>        </g></svg>